<svg id="Layer_1" data-name="Layer 1" xmlns="http://www.w3.org/2000/svg" viewBox="0 0 250 250"><defs><style>.cls-1{fill:#2c3e50;}</style></defs><title>fancytest</title><path class="cls-1" d="M137.17,92.42l-13.1-4.18L116,113.62,129.74,118q7.71,2.46,12.87.62t7.1-7.9q2.12-6.66-1.05-11.16T137.17,92.42Z"/><path class="cls-1" d="M130.83,133l-19.09-6.09-8.83,27.68,17.64,5.63q7.65,2.44,12.73.39t7.16-8.57q2.25-7.05,0-11.87T130.83,133Z"/><path class="cls-1" d="M155.17,30.42a99.28,99.28,0,1,0,64.41,124.75A99.28,99.28,0,0,0,155.17,30.42Zm14.26,84.93a21.85,21.85,0,0,1-7.32,10.77,22.36,22.36,0,0,1-12.76,4.61q8,4.6,10.43,12a24.76,24.76,0,0,1-.16,15.42q-4.39,13.78-15.75,18t-28-1.14l1.88.57-4.19,13.14-9.77-3.12,4.18-13.11,7.9,2.52-17.64-5.63L94,182.5l-9.77-3.12,4.18-13.12L68.64,160l3.68-11.53,10.85,1.28,22-68.88-9.59-5.24L99.26,64l10.22,3.26,9.56,3,4.22-13.24L133,60.18l-4.22,13.24,9.74,3.11,4.22-13.24,9.77,3.12-4.31,13.5q12.06,5,18,12.71Q173.62,102.24,169.43,115.35Z"/></svg>